<svg version="1.1" viewBox="0.0 0.0 960.0 720.0" fill="none" stroke="none" stroke-linecap="square" stroke-miterlimit="10" xmlns:xlink="http://www.w3.org/1999/xlink" xmlns="http://www.w3.org/2000/svg"><clipPath id="p.0"><path d="m0 0l960.0 0l0 720.0l-960.0 0l0 -720.0z" clip-rule="nonzero"/></clipPath><g clip-path="url(#p.0)"><path fill="#000000" fill-opacity="0.0" d="m0 0l960.0 0l0 720.0l-960.0 0z" fill-rule="evenodd"/><path fill="#ffffff" d="m166.18898 333.67715l0 0c0 -167.92064 138.15013 -304.04724 308.56696 -304.04724l0 0c81.837036 0 160.3222 32.03346 218.18976 89.053375c57.867493 57.01992 90.37714 134.35553 90.37714 214.99387l0 0c0 167.92065 -138.15009 304.04727 -308.5669 304.04727l0 0c-170.41681 0 -308.56696 -136.12662 -308.56696 -304.04727z" fill-rule="evenodd"/><path stroke="#ffffff" stroke-width="1.0" stroke-linejoin="round" stroke-linecap="butt" d="m166.18898 333.67715l0 0c0 -167.92064 138.15013 -304.04724 308.56696 -304.04724l0 0c81.837036 0 160.3222 32.03346 218.18976 89.053375c57.867493 57.01992 90.37714 134.35553 90.37714 214.99387l0 0c0 167.92065 -138.15009 304.04727 -308.5669 304.04727l0 0c-170.41681 0 -308.56696 -136.12662 -308.56696 -304.04727z" fill-rule="evenodd"/><path fill="#000000" fill-opacity="0.0" d="m262.40945 379.20734l0 0c0 -117.66708 97.41861 -213.0551 217.59055 -213.0551l0 0c57.70862 0 113.05359 22.446808 153.85974 62.40239c40.806152 39.955597 63.730835 94.147 63.730835 150.65271l0 0c0 117.667114 -97.41864 213.05511 -217.59058 213.05511l0 0c-120.171936 0 -217.59055 -95.388 -217.59055 -213.05511z" fill-rule="evenodd"/><path stroke="#741b47" stroke-width="16.0" stroke-linejoin="round" stroke-linecap="butt" d="m262.40945 379.20734l0 0c0 -117.66708 97.41861 -213.0551 217.59055 -213.0551l0 0c57.70862 0 113.05359 22.446808 153.85974 62.40239c40.806152 39.955597 63.730835 94.147 63.730835 150.65271l0 0c0 117.667114 -97.41864 213.05511 -217.59058 213.05511l0 0c-120.171936 0 -217.59055 -95.388 -217.59055 -213.05511z" fill-rule="evenodd"/><path fill="#000000" fill-opacity="0.0" d="m341.34647 333.61493c0 -16.427643 13.184662 -36.858948 29.388428 -39.561676c21.445435 -3.5769958 57.64569 8.77536 57.64569 30.51706" fill-rule="evenodd"/><path stroke="#351c75" stroke-width="16.0" stroke-linejoin="round" stroke-linecap="butt" d="m341.34647 333.61493c0 -16.427643 13.184662 -36.858948 29.388428 -39.561676c21.445435 -3.5769958 57.64569 8.77536 57.64569 30.51706" fill-rule="evenodd"/><path fill="#000000" fill-opacity="0.0" d="m619.5801 333.61493c0 -16.427643 -13.184692 -36.858948 -29.388489 -39.561676c-21.445435 -3.5769958 -57.64563 8.77536 -57.64563 30.51706" fill-rule="evenodd"/><path stroke="#990000" stroke-width="16.0" stroke-linejoin="round" stroke-linecap="butt" d="m619.5801 333.61493c0 -16.427643 -13.184692 -36.858948 -29.388489 -39.561676c-21.445435 -3.5769958 -57.64563 8.77536 -57.64563 30.51706" fill-rule="evenodd"/><path fill="#000000" fill-opacity="0.0" d="m389.5761 425.8609c7.941742 31.803894 45.40985 56.282745 77.9895 59.905518c39.062683 4.3436584 102.85828 -18.342255 102.85828 -57.64569" fill-rule="evenodd"/><path stroke="#b45f06" stroke-width="16.0" stroke-linejoin="round" stroke-linecap="butt" d="m389.5761 425.8609c7.941742 31.803894 45.40985 56.282745 77.9895 59.905518c39.062683 4.3436584 102.85828 -18.342255 102.85828 -57.64569" fill-rule="evenodd"/><path fill="#000000" fill-opacity="0.0" d="m201.3445 188.92433l62.61418 -68.34646l84.188965 77.10236l-62.614166 68.346466z" fill-rule="evenodd"/><path fill="#990000" d="m297.8127 195.97589l12.233429 -7.038742q6.206604 9.879288 5.3738403 18.884048q-0.83374023 8.982697 -8.306549 17.139648q-9.246033 10.092499 -22.08963 10.279755q-12.855133 0.17671204 -24.815857 -10.777222q-12.652115 -11.587112 -13.661896 -24.525223q-1.0213165 -12.948654 8.7313385 -23.594162q8.517746 -9.297546 19.333786 -10.070435q6.4158936 -0.48042297 14.083191 3.3633575l-6.8578796 12.343185q-4.764099 -2.7104645 -9.663239 -1.9427032q-4.88855 0.75624084 -8.6249695 4.834717q-5.161316 5.6338196 -4.3359985 12.851837q0.83584595 7.206497 9.892822 15.501099q9.610077 8.801147 16.855621 9.080551q7.2455444 0.27938843 12.311859 -5.2507477q3.7363892 -4.078476 3.8352356 -9.390762q0.098846436 -5.3123016 -4.295105 -11.688202z" fill-rule="nonzero"/><path fill="#000000" fill-opacity="0.0" d="m446.0958 50.975067l67.811005 0l0 75.968506l-67.811005 0z" fill-rule="evenodd"/><path fill="#38761d" d="m475.67392 152.13506l-20.0625 -49.781242l13.828125 0l9.375 25.40625l2.71875 8.484367q1.078125 -3.234375 1.359375 -4.265625q0.65625 -2.109375 1.40625 -4.2187424l9.46875 -25.40625l13.546875 0l-19.78125 49.781242l-11.859375 0z" fill-rule="nonzero"/><path fill="#000000" fill-opacity="0.0" d="m291.94376 100.97304l65.95276 -31.874016l48.283478 99.937004l-65.95276 31.874023z" fill-rule="evenodd"/><path fill="#b45f06" d="m332.18124 117.55803l10.991241 22.749603q2.497528 -9.484894 10.474182 -13.339912q4.093872 -1.9785004 8.119934 -2.050003q4.026062 -0.071502686 6.828064 1.4898148q2.8160706 1.5545197 4.8076477 4.132248q2.0056458 2.5709229 4.921692 8.606537l12.704132 26.294998l-11.859497 5.731537l-11.43985 -23.678177q-3.4054565 -7.0485687 -4.998352 -8.621536q-1.592926 -1.5729675 -3.846222 -1.85495q-2.2460327 -0.30285645 -4.820526 0.9413605q-2.9543152 1.4277802 -4.582245 3.9846497q-1.6279297 2.5568695 -1.3109436 5.978607q0.32424927 3.400879 3.0567627 9.056625l10.84848 22.454163l-11.859497 5.7315216l-29.8945 -61.875565l11.859497 -5.7315216z" fill-rule="nonzero"/><path fill="#000000" fill-opacity="0.0" d="m383.90448 62.73636l71.40158 -16.283466l24.692902 108.18898l-71.40158 16.283463z" fill-rule="evenodd"/><path fill="#bf9000" d="m409.32797 102.713l-2.7119446 -11.88195l12.842163 -2.928711l2.711914 11.881943l-12.842133 2.9287186zm12.579132 55.113953l-11.077148 -48.53318l12.842133 -2.9287186l11.077148 48.533188l-12.842133 2.928711z" fill-rule="nonzero"/><path fill="#000000" fill-opacity="0.0" d="m613.8733 69.46976l-70.5827 -19.496067l-29.543274 106.96063l70.58264 19.496063z" fill-rule="evenodd"/><path fill="#134f5c" d="m535.5521 126.23214q1.7471924 -6.325638 6.499695 -11.3834915q4.7525024 -5.0578537 11.321777 -6.598816q6.5842896 -1.5368042 13.6328125 0.4101181q10.88916 3.0077515 15.892151 12.008408q5.007141 8.985603 2.024475 19.78437q-3.0076904 10.889145 -12.021301 16.115433q-8.994446 5.215393 -19.657654 2.27005q-6.5967407 -1.822113 -11.767334 -6.4599304q-5.1555176 -4.6336365 -6.684082 -11.248093q-1.524353 -6.629532 0.75946045 -14.898048zm12.825562 4.272072q-1.9718628 7.1389313 0.3685913 11.870346q2.340393 4.7313995 7.310547 6.104233q4.970093 1.3728333 9.377014 -1.4948578q4.421997 -2.8635254 6.4188232 -10.092819q1.9468384 -7.0485687 -0.37854004 -11.7758255q-2.3102417 -4.7230835 -7.2803955 -6.095909q-4.970154 -1.3728333 -9.407166 1.4865265q-4.4370728 2.8593674 -6.4088745 9.998306z" fill-rule="nonzero"/><path fill="#000000" fill-opacity="0.0" d="m697.59155 115.94859l-64.031494 -35.55906l-53.858215 97.039375l64.031494 35.55905z" fill-rule="evenodd"/><path fill="#1155cc" d="m598.3612 176.55444l33.34796 -60.084793l11.51532 6.394905l-33.3479 60.084785l-11.515381 -6.3948975z" fill-rule="nonzero"/><path fill="#000000" fill-opacity="0.0" d="m758.38385 188.92433l-62.614136 -68.34646l-84.188965 77.10236l62.614136 68.346466z" fill-rule="evenodd"/><path fill="#351c75" d="m648.71844 181.08472q4.8395996 -4.4322357 11.5529175 -6.1946564q6.713379 -1.7624359 13.098877 0.4196167q6.396057 2.193573 11.335693 7.585449q7.6311646 8.329773 7.091736 18.612396q-0.52789307 10.272079 -8.789795 17.838531q-8.330994 7.6297607 -18.744995 7.2725983q-10.391907 -0.35620117 -17.864746 -8.513153q-4.622986 -5.0462494 -6.5422974 -11.72113q-1.9087524 -6.663376 0.3081665 -13.0794525q2.2283936 -6.426651 8.554443 -12.2202zm8.60083 10.429123q-5.461853 5.0020905 -5.9907227 10.253677q-0.52893066 5.251587 2.9541626 9.053558q3.4830933 3.8019714 8.74054 3.7118378q5.2680664 -0.07861328 10.799011 -5.1440125q5.3927 -4.9387665 5.93219 -10.178833q0.5500488 -5.228546 -2.9330444 -9.030518q-3.4830933 -3.8019714 -8.761719 -3.7348785q-5.2785645 0.06707764 -10.7404175 5.069168z" fill-rule="nonzero"/></g></svg>