<svg version="1.1" viewBox="0.0 0.0 559.9160104986877 553.3280839895014" fill="none" stroke="none" stroke-linecap="square" stroke-miterlimit="10" xmlns:xlink="http://www.w3.org/1999/xlink" xmlns="http://www.w3.org/2000/svg"><clipPath id="p.0"><path d="m0 0l559.916 0l0 553.32806l-559.916 0l0 -553.32806z" clip-rule="nonzero"/></clipPath><g clip-path="url(#p.0)"><path fill="#000000" fill-opacity="0.0" d="m0 0l559.916 0l0 553.32806l-559.916 0z" fill-rule="evenodd"/><path fill="#000000" fill-opacity="0.0" d="m62.545933 311.60367l0 0c0 -117.66708 97.41861 -213.05511 217.59055 -213.05511l0 0c57.70862 0 113.05362 22.446815 153.85977 62.402405c40.80612 39.95558 63.730774 94.14699 63.730774 150.65271l0 0c0 117.66708 -97.41858 213.05515 -217.59055 213.05515l0 0c-120.171936 0 -217.59055 -95.38806 -217.59055 -213.05515z" fill-rule="evenodd"/><path stroke="#741b47" stroke-width="16.0" stroke-linejoin="round" stroke-linecap="butt" d="m62.545933 311.60367l0 0c0 -117.66708 97.41861 -213.05511 217.59055 -213.05511l0 0c57.70862 0 113.05362 22.446815 153.85977 62.402405c40.80612 39.95558 63.730774 94.14699 63.730774 150.65271l0 0c0 117.66708 -97.41858 213.05515 -217.59055 213.05515l0 0c-120.171936 0 -217.59055 -95.38806 -217.59055 -213.05515z" fill-rule="evenodd"/><path fill="#000000" fill-opacity="0.0" d="m141.48294 266.01126c0 -16.427643 13.184662 -36.858963 29.388443 -39.561676c21.445435 -3.577011 57.645676 8.77536 57.645676 30.51706" fill-rule="evenodd"/><path stroke="#351c75" stroke-width="16.0" stroke-linejoin="round" stroke-linecap="butt" d="m141.48294 266.01126c0 -16.427643 13.184662 -36.858963 29.388443 -39.561676c21.445435 -3.577011 57.645676 8.77536 57.645676 30.51706" fill-rule="evenodd"/><path fill="#000000" fill-opacity="0.0" d="m419.71652 266.01126c0 -16.427643 -13.184662 -36.858963 -29.388428 -39.561676c-21.445435 -3.577011 -57.64569 8.77536 -57.64569 30.51706" fill-rule="evenodd"/><path stroke="#990000" stroke-width="16.0" stroke-linejoin="round" stroke-linecap="butt" d="m419.71652 266.01126c0 -16.427643 -13.184662 -36.858963 -29.388428 -39.561676c-21.445435 -3.577011 -57.64569 8.77536 -57.64569 30.51706" fill-rule="evenodd"/><path fill="#000000" fill-opacity="0.0" d="m189.7126 358.25723c7.941742 31.803894 45.409836 56.282745 77.98949 59.905487c39.062683 4.3436584 102.85828 -18.342224 102.85828 -57.64566" fill-rule="evenodd"/><path stroke="#b45f06" stroke-width="16.0" stroke-linejoin="round" stroke-linecap="butt" d="m189.7126 358.25723c7.941742 31.803894 45.409836 56.282745 77.98949 59.905487c39.062683 4.3436584 102.85828 -18.342224 102.85828 -57.64566" fill-rule="evenodd"/><path fill="#000000" fill-opacity="0.0" d="m1.4809859 121.320656l62.614174 -68.34646l84.18897 77.102356l-62.614174 68.346466z" fill-rule="evenodd"/><path fill="#990000" d="m97.94918 128.37221l12.233452 -7.038727q6.2066116 9.879288 5.3738327 18.884048q-0.83374023 8.982681 -8.306564 17.139633q-9.246033 10.092499 -22.08963 10.27977q-12.855118 0.17669678 -24.81585 -10.777237q-12.652103 -11.587112 -13.661892 -24.525208q-1.0213127 -12.948654 8.73135 -23.59417q8.51775 -9.297546 19.333786 -10.070442q6.415901 -0.4804077 14.083199 3.3633652l-6.857895 12.343178q-4.764099 -2.7104492 -9.663223 -1.9426956q-4.8885727 0.75624084 -8.624981 4.834717q-5.161312 5.633827 -4.33601 12.851845q0.8358574 7.206497 9.89283 15.501099q9.610069 8.801132 16.855606 9.080536q7.2455444 0.2794037 12.311867 -5.2507324q3.736412 -4.078476 3.8352432 -9.390778q0.098838806 -5.3122864 -4.2951202 -11.688202z" fill-rule="nonzero"/><path fill="#000000" fill-opacity="0.0" d="m246.23228 -16.628609l67.81102 0l0 75.968506l-67.81102 0z" fill-rule="evenodd"/><path fill="#38761d" d="m275.8104 84.53139l-20.062485 -49.78125l13.82811 0l9.375 25.40625l2.71875 8.484375q1.078125 -3.234375 1.359375 -4.265625q0.65625 -2.109375 1.40625 -4.21875l9.46875 -25.40625l13.546875 0l-19.78125 49.78125l-11.859375 0z" fill-rule="nonzero"/><path fill="#000000" fill-opacity="0.0" d="m92.080246 33.369366l65.95276 -31.874018l48.283463 99.93701l-65.95276 31.874008z" fill-rule="evenodd"/><path fill="#b45f06" d="m132.31773 49.95435l10.991226 22.749615q2.497528 -9.484905 10.474197 -13.339916q4.093857 -1.9785004 8.119919 -2.050003q4.0260773 -0.071502686 6.828079 1.4898148q2.8160553 1.5545197 4.8076324 4.132244q2.005661 2.5709229 4.921692 8.606537l12.704147 26.295006l-11.859512 5.731529l-11.43985 -23.67817q-3.4054413 -7.048584 -4.998352 -8.6215515q-1.5929108 -1.5729675 -3.8462067 -1.8549423q-2.246048 -0.30284882 -4.820526 0.9413605q-2.9543304 1.4277878 -4.58226 3.9846573q-1.6279297 2.5568695 -1.3109436 5.978607q0.32426453 3.4008713 3.056778 9.056618l10.84848 22.454163l-11.859512 5.731529l-29.894493 -61.87557l11.859505 -5.731529z" fill-rule="nonzero"/><path fill="#000000" fill-opacity="0.0" d="m184.04095 -4.867317l71.40158 -16.283464l24.692902 108.18897l-71.401566 16.283463z" fill-rule="evenodd"/><path fill="#bf9000" d="m209.46445 35.10932l-2.7119293 -11.881947l12.842163 -2.9287128l2.711914 11.881945l-12.842148 2.9287148zm12.579132 55.113953l-11.077148 -48.533184l12.842148 -2.928711l11.077148 48.533176l-12.842148 2.9287186z" fill-rule="nonzero"/><path fill="#000000" fill-opacity="0.0" d="m414.00977 1.8660798l-70.58267 -19.496063l-29.543304 106.96063l70.58267 19.496056z" fill-rule="evenodd"/><path fill="#134f5c" d="m335.68863 58.628468q1.7471924 -6.3256416 6.499695 -11.383495q4.7525024 -5.0578537 11.321747 -6.598816q6.5842896 -1.5368004 13.632843 0.41012192q10.88913 3.0077477 15.89212 12.008404q5.0071716 8.985596 2.024475 19.78437q-3.00766 10.889137 -12.021301 16.11544q-8.994446 5.215393 -19.657623 2.2700424q-6.5967407 -1.8221207 -11.767334 -6.459923q-5.1555786 -4.633644 -6.684082 -11.248108q-1.524353 -6.629524 0.75946045 -14.898037zm12.825531 4.272068q-1.9718323 7.138939 0.3685913 11.870346q2.340393 4.731407 7.310547 6.104233q4.9701233 1.3728333 9.377045 -1.4948502q4.421997 -2.8635254 6.418762 -10.092827q1.9468689 -7.0485764 -0.378479 -11.775822q-2.3103027 -4.7230835 -7.280426 -6.0959167q-4.970154 -1.3728294 -9.407196 1.4865341q-4.437042 2.8593636 -6.408844 9.998302z" fill-rule="nonzero"/><path fill="#000000" fill-opacity="0.0" d="m497.72806 48.344917l-64.031494 -35.55906l-53.858276 97.039375l64.031525 35.55906z" fill-rule="evenodd"/><path fill="#1155cc" d="m398.49768 108.95076l33.34796 -60.084785l11.51535 6.3949013l-33.34793 60.08479l-11.515381 -6.394905z" fill-rule="nonzero"/><path fill="#000000" fill-opacity="0.0" d="m558.5204 121.320656l-62.614197 -68.34646l-84.188995 77.102356l62.614197 68.346466z" fill-rule="evenodd"/><path fill="#351c75" d="m448.85492 113.48103q4.8395996 -4.432228 11.552948 -6.1946564q6.713318 -1.7624283 13.098846 0.41962433q6.396057 2.1935654 11.335724 7.585449q7.631134 8.329773 7.091736 18.612404q-0.52789307 10.272079 -8.789795 17.838531q-8.331024 7.6297607 -18.745026 7.272583q-10.391907 -0.35620117 -17.864716 -8.513153q-4.6230164 -5.0462494 -6.542328 -11.72113q-1.9087219 -6.6633606 0.3081665 -13.0794525q2.2283936 -6.4266434 8.554443 -12.2202zm8.600861 10.429131q-5.461853 5.002083 -5.9907837 10.25367q-0.52893066 5.251602 2.954193 9.053558q3.4830933 3.8019714 8.74057 3.711853q5.268036 -0.07861328 10.799011 -5.1440125q5.3927 -4.9387665 5.93219 -10.178848q0.5500183 -5.2285385 -2.933075 -9.03051q-3.4830933 -3.8019714 -8.761688 -3.7348862q-5.278595 0.067092896 -10.7404175 5.0691757z" fill-rule="nonzero"/></g></svg>